<svg width="57" height="64" viewBox="0 0 57 64" fill="none" xmlns="http://www.w3.org/2000/svg">
<path d="M56.3082 16C56.3082 17.9195 56.2776 19.8446 56.29 21.7641C52.6156 24.6197 47.6523 27.2286 45.3911 28.5408C43.8683 29.4248 42.332 30.284 40.8067 31.1655C38.8038 32.3231 36.8098 33.4962 34.8219 34.6793V40.8165C35.0738 40.675 35.285 40.5607 35.4925 40.4403C36.1112 40.079 36.7275 39.7127 37.3475 39.3539C38.2688 38.8212 39.1963 38.2973 40.1176 37.7646C41.0747 37.2109 42.0269 36.6497 42.984 36.0959C43.6756 35.6961 44.3734 35.3075 45.0625 34.904C46.1753 34.2522 47.2806 33.5879 48.3958 32.9385C49.3332 32.3922 50.2805 31.8621 51.2203 31.3195C52.1947 30.7558 53.1654 30.1847 54.1386 29.6197C54.7586 29.2597 55.3835 28.9071 55.9998 28.5408C56.0702 28.4986 56.0986 28.3881 56.1467 28.3086C56.3999 28.4079 56.2789 28.6289 56.2801 28.7891C56.2912 30.2517 56.2863 31.7143 56.2863 33.1782C56.2863 33.6711 56.2863 34.1628 56.2863 34.6718C55.3477 35.2094 54.4276 35.7309 53.5112 36.2623C52.806 36.6708 52.1021 37.0842 51.4068 37.5101C51.0662 37.7181 50.8176 37.8506 50.4558 38.0651C49.8396 38.4301 49.227 38.8014 48.6083 39.1602C47.6697 39.704 46.7236 40.2354 45.785 40.7805C44.8649 41.3144 43.9548 41.8656 43.0347 42.3995C42.1146 42.9334 41.1859 43.4537 40.2633 43.9838C39.1987 44.5959 38.1366 45.2105 37.0758 45.8301C36.4397 46.2013 35.8185 46.5986 35.1714 46.9512C34.8738 47.1126 34.7873 47.3113 34.7898 47.6391C34.8072 49.504 34.6882 51.3967 34.8342 53.2561C35.7006 52.8819 36.4894 52.3389 37.3055 51.8667C38.7406 51.0361 40.1806 50.2154 41.6144 49.3823C43.1545 48.4883 44.6871 47.582 46.2259 46.688C47.146 46.1529 48.076 45.6351 48.996 45.1C50.1989 44.401 51.3957 43.6896 52.5986 42.9905C53.0535 42.7262 56.2789 40.7878 56.2789 41.081C56.2863 43.0837 56.285 45.0864 56.285 47.1251C56.0059 47.3001 55.7367 47.4802 55.4564 47.6428C54.5363 48.1755 53.61 48.6982 52.6912 49.2321C51.7723 49.7659 50.8584 50.3085 49.9421 50.8486C49.0442 51.3788 48.1513 51.9152 47.2497 52.4379C46.4877 52.8786 45.7134 53.2971 44.9514 53.7366C44.0832 54.2369 43.2249 54.751 42.3591 55.2563C41.7231 55.6275 41.0821 55.9888 40.4473 56.3601C39.6174 56.8443 38.7937 57.3397 37.9613 57.8202C36.83 58.472 35.6901 59.1102 34.5588 59.7621C33.656 60.2823 32.7607 60.8162 31.8616 61.3451C31.0502 61.8219 30.2413 62.3011 29.4262 62.7692C29.2316 59.0769 29.2312 41.8462 29.3656 32.088C35.3851 28.3077 50.1543 19.6923 56.3082 16Z" fill="#068AC2"/>
<path d="M56.3082 16C56.3082 17.9195 56.2776 19.8446 56.29 21.7641C52.6156 24.6197 47.6523 27.2286 45.3911 28.5408C43.8683 29.4248 42.332 30.284 40.8067 31.1655C38.8038 32.3231 36.8098 33.4962 34.8219 34.6793V40.8165C35.0738 40.675 35.285 40.5607 35.4925 40.4403C36.1112 40.079 36.7275 39.7127 37.3475 39.3539C38.2688 38.8212 39.1963 38.2973 40.1176 37.7646C41.0747 37.2109 42.0269 36.6497 42.984 36.0959C43.6756 35.6961 44.3734 35.3075 45.0625 34.904C46.1753 34.2522 47.2806 33.5879 48.3958 32.9385C49.3332 32.3922 50.2805 31.8621 51.2203 31.3195C52.1947 30.7558 53.1654 30.1847 54.1386 29.6197C54.7586 29.2597 55.3835 28.9071 55.9998 28.5408C56.0702 28.4986 56.0986 28.3881 56.1467 28.3086C56.3999 28.4079 56.2789 28.6289 56.2801 28.7891C56.2912 30.2517 56.2863 31.7143 56.2863 33.1782C56.2863 33.6711 56.2863 34.1628 56.2863 34.6718C55.3477 35.2094 54.4276 35.7309 53.5112 36.2623C52.806 36.6708 52.1021 37.0842 51.4068 37.5101C51.0662 37.7181 50.8176 37.8506 50.4558 38.0651C49.8396 38.4301 49.227 38.8014 48.6083 39.1602C47.6697 39.704 46.7236 40.2354 45.785 40.7805C44.8649 41.3144 43.9548 41.8656 43.0347 42.3995C42.1146 42.9334 41.1859 43.4537 40.2633 43.9838C39.1987 44.5959 38.1366 45.2105 37.0758 45.8301C36.4397 46.2013 35.8185 46.5986 35.1714 46.9512C34.8738 47.1126 34.7873 47.3113 34.7898 47.6391C34.8072 49.504 34.6882 51.3967 34.8342 53.2561C35.7006 52.8819 36.4894 52.3389 37.3055 51.8667C38.7406 51.0361 40.1806 50.2154 41.6144 49.3823C43.1545 48.4883 44.6871 47.582 46.2259 46.688C47.146 46.1529 48.076 45.6351 48.996 45.1C50.1989 44.401 51.3957 43.6896 52.5986 42.9905C53.0535 42.7262 56.2789 40.7878 56.2789 41.081C56.2863 43.0837 56.285 45.0864 56.285 47.1251C56.0059 47.3001 55.7367 47.4802 55.4564 47.6428C54.5363 48.1755 53.61 48.6982 52.6912 49.2321C51.7723 49.7659 50.8584 50.3085 49.9421 50.8486C49.0442 51.3788 48.1513 51.9152 47.2497 52.4379C46.4877 52.8786 45.7134 53.2971 44.9514 53.7366C44.0832 54.2369 43.2249 54.751 42.3591 55.2563C41.7231 55.6275 41.0821 55.9888 40.4473 56.3601C39.6174 56.8443 38.7937 57.3397 37.9613 57.8202C36.83 58.472 35.6901 59.1102 34.5588 59.7621C33.656 60.2823 32.7607 60.8162 31.8616 61.3451C31.0502 61.8219 30.2413 62.3011 29.4262 62.7692C29.2316 59.0769 29.2312 41.8462 29.3656 32.088C35.3851 28.3077 50.1543 19.6923 56.3082 16Z" fill="white" fill-opacity="0.82"/>
<path d="M29.2312 31.9997L2.1543 17.2305V47.9997L7.07737 50.4612V25.8459L13.2312 29.5382V54.1535L18.1543 56.6151V31.9997L23.0774 34.8074V60.3074L29.2312 63.4997V31.9997Z" fill="#121F24"/>
<path d="M56.1191 41.3669C56.1191 43.3236 56.1054 45.2929 56.1303 47.2621C56.1353 47.6754 55.9934 47.8907 55.6511 48.0886C47.1418 52.9868 38.6263 57.8775 30.1457 62.8255C29.1897 63.3832 28.4876 63.4354 27.5702 62.8155C26.3553 61.994 25.052 61.2969 23.7637 60.5886C23.3741 60.3745 23.2658 60.1256 23.2695 59.7073C23.2894 57.9286 23.2782 56.1485 23.2782 54.2478C21.4571 55.2959 19.7257 56.2929 18.0153 57.2776C16.3212 56.2942 14.6495 55.3046 12.9566 54.3536C12.5732 54.1382 12.4512 53.8918 12.4574 53.471C12.4786 51.9151 12.4661 50.3591 12.4674 48.8031C12.4674 48.5803 12.4674 48.3588 12.4674 47.9729C10.6164 49.0396 8.88493 50.0367 7.18706 51.0139C5.55143 50.0703 3.93322 49.1094 2.28514 48.2044C1.76483 47.9193 1.59056 47.6019 1.5918 47.002C1.61421 36.7338 1.60799 26.4669 1.60799 16.2125C3.29963 15.2316 4.9863 14.2707 6.65305 13.2748C7.04266 13.0421 7.33768 13.0383 7.72355 13.2711C9.08907 14.0951 10.4733 14.8868 11.8525 15.6884C12.0093 15.7793 12.1761 15.854 12.4101 15.971V9.96747C14.3059 8.87456 16.1507 7.81153 18.0265 6.73106C19.7057 7.69825 21.426 8.68909 23.2247 9.7235V3.71622C24.9325 2.7341 26.5893 1.81172 28.2125 0.832083C28.7142 0.528359 29.0764 0.576905 29.5606 0.859468C36.2413 4.74067 42.9344 8.60071 49.6251 12.4657C51.5259 13.5636 53.4266 14.6615 55.3299 15.7557C55.5801 15.9001 55.839 16.027 56.1178 16.1739C56.1178 18.2041 56.1303 20.2555 56.0979 22.3069C56.0954 22.5048 55.8602 22.7675 55.6647 22.8845C54.2059 23.7533 52.7283 24.5923 51.2582 25.4425C51.1549 25.5022 51.0578 25.5744 50.8736 25.6964C52.6437 26.7159 54.3528 27.6993 56.1166 28.715C56.1166 30.7589 56.1266 32.8738 56.0979 34.9874C56.0954 35.1667 55.8664 35.4032 55.6834 35.5115C54.1175 36.4401 52.5379 37.3462 50.8549 38.3222C52.6499 39.3615 54.3577 40.3499 56.1178 41.3681L56.1191 41.3669ZM34.2173 41.7191C34.1451 41.4739 34.1028 41.3992 34.1028 41.3245C34.099 39.3541 34.0891 37.3836 34.114 35.4131C34.1165 35.2401 34.2982 35.0086 34.4613 34.909C36.3272 33.7675 38.1919 32.6223 40.0839 31.5257C45.1725 28.5768 50.2724 25.6479 55.3747 22.7239C55.7033 22.5359 55.8477 22.338 55.8427 21.9509C55.8228 20.3339 55.8365 18.7157 55.8315 17.0975C55.8315 16.9482 55.7917 16.7988 55.7643 16.6058C55.5353 16.7353 55.3735 16.8262 55.2129 16.9183C52.0026 18.773 48.7936 20.6277 45.5833 22.4812C40.364 25.4948 35.1447 28.5084 29.9241 31.5182C29.3154 31.8692 29.0191 32.2975 29.0216 33.0779C29.054 42.7847 29.0428 52.4914 29.0415 62.1969C29.0415 62.4571 29.0415 62.7172 29.0415 63.0433C29.2407 62.955 29.3365 62.9214 29.4237 62.8716C38.0674 57.88 46.7098 52.8835 55.3598 47.9007C55.7133 47.6978 55.849 47.4812 55.8427 47.0741C55.8203 45.4771 55.8365 43.8801 55.834 42.283C55.834 42.1312 55.7954 41.9781 55.7656 41.7615C48.5309 45.9389 41.366 50.0753 34.1351 54.2503C34.1152 54.066 34.099 53.9914 34.099 53.9154C34.0978 51.9449 34.0854 49.9745 34.114 48.0052C34.1165 47.7999 34.3119 47.5173 34.4986 47.4053C36.204 46.3833 37.9217 45.385 39.6445 44.3929C44.8838 41.3756 50.1243 38.3607 55.3735 35.3621C55.7369 35.1542 55.8477 34.9227 55.8415 34.5243C55.8203 33.0729 55.8328 31.6203 55.8328 30.1689C55.8328 29.8477 55.8328 29.5266 55.8328 29.1258C48.582 33.3505 41.4407 37.5106 34.2161 41.7204L34.2173 41.7191ZM7.04266 25.4823C7.16963 25.5172 7.23187 25.5209 7.28042 25.5483C9.00567 26.5354 10.7359 27.5163 12.4475 28.5283C12.613 28.6266 12.7462 28.9117 12.7574 29.1183C12.7948 29.8428 12.7736 30.5697 12.7736 31.2954C12.7699 38.6172 12.7699 45.9377 12.7512 53.2594C12.7512 53.7075 12.8719 53.9677 13.2728 54.1905C14.6296 54.9448 15.9627 55.7427 17.3083 56.5182C17.4552 56.6029 17.622 56.6552 17.8722 56.7635V31.7771C19.6273 32.7904 21.2766 33.7775 22.9621 34.6961C23.4961 34.9874 23.6517 35.3148 23.6492 35.906C23.6181 43.7668 23.6168 51.6263 23.5981 59.487C23.5981 59.9115 23.6604 60.2065 24.0873 60.4405C25.5026 61.2173 26.8881 62.0488 28.2885 62.8541C28.4017 62.9189 28.5349 62.95 28.7204 63.0197C28.7204 62.7234 28.7204 62.4981 28.7204 62.2728C28.7204 52.5661 28.7079 42.8593 28.7428 33.1539C28.7453 32.3248 28.4241 31.8755 27.7793 31.5033C19.3136 26.6163 10.8504 21.7256 2.38597 16.8374C2.26772 16.7689 2.13328 16.7266 1.93163 16.6395C1.93163 16.9307 1.93163 17.1548 1.93163 17.3801C1.93163 27.2524 1.93536 37.1247 1.92042 46.997C1.92042 47.4737 2.0561 47.7364 2.48182 47.9679C3.84609 48.711 5.18173 49.5064 6.52982 50.2782C6.66425 50.3554 6.81363 50.4052 7.04391 50.5072V25.4836L7.04266 25.4823ZM2.12706 16.2673C2.37352 16.4216 2.5092 16.5125 2.65111 16.5946C11.133 21.4966 19.6198 26.391 28.0905 31.3128C28.6706 31.6502 29.0826 31.6415 29.6577 31.3079C37.862 26.5478 46.0812 21.814 54.2955 17.0701C54.7125 16.8287 55.117 16.5635 55.5876 16.2722C55.3809 16.1415 55.2627 16.0619 55.1407 15.9909C53.0246 14.7686 50.9072 13.5487 48.7911 12.3251C42.2996 8.57208 35.8081 4.82034 29.3216 1.05863C28.9917 0.868182 28.7353 0.869427 28.4092 1.06486C27.0922 1.85031 25.7603 2.60962 24.4334 3.37889C24.2454 3.48718 24.0612 3.6017 23.7898 3.76601C31.0456 7.95841 38.2006 12.0935 45.4576 16.2859C43.6577 17.3291 41.9685 18.2913 40.2993 19.2883C39.8648 19.5485 39.525 19.5273 39.0993 19.2771C36.921 17.9963 34.7264 16.7415 32.5393 15.4768C27.8602 12.7719 23.1836 10.0621 18.4958 7.37088C18.2855 7.25013 17.9145 7.18042 17.7253 7.28374C16.1818 8.12894 14.6632 9.02144 13.1396 9.90399C13.0985 9.92764 13.086 10.0036 13.0462 10.0845C20.1987 14.2159 27.3387 18.3423 34.5932 22.5335C34.2646 22.7413 34.0816 22.8646 33.8912 22.9753C32.4223 23.828 30.9398 24.6583 29.4884 25.5383C29.0415 25.8097 28.7179 25.8097 28.2598 25.5433C21.37 21.5302 14.4677 17.5382 7.56298 13.5499C7.40614 13.4591 7.13602 13.3831 7.00657 13.4553C5.40454 14.3565 3.81746 15.2864 2.12955 16.266L2.12706 16.2673ZM7.42854 26.0126V50.5259C9.07538 49.5799 10.6388 48.6911 12.1861 47.775C12.3193 47.6965 12.4188 47.4438 12.4188 47.2721C12.43 41.2835 12.43 35.2936 12.4188 29.305C12.4188 29.1283 12.3342 28.8656 12.2035 28.7872C10.6438 27.8598 9.06791 26.9586 7.42854 26.0126ZM55.6797 28.8146C54.044 27.871 52.5677 27.0358 51.1101 26.1682C50.7267 25.9392 50.4317 25.9292 50.0396 26.1632C46.7198 28.1374 43.39 30.093 40.0578 32.0473C38.3624 33.0418 36.6645 34.0339 34.9492 34.9949C34.5671 35.209 34.4376 35.4492 34.4439 35.8737C34.4663 37.4272 34.4513 38.9819 34.4551 40.5366C34.4551 40.7096 34.4812 40.8827 34.5048 41.1665C41.5789 37.04 48.567 32.9634 55.6797 28.8158V28.8146ZM18.2108 56.8307C19.8962 55.851 21.4746 54.9473 23.0318 54.0063C23.1849 53.9142 23.2695 53.5968 23.2708 53.3839C23.2832 47.5185 23.277 41.6532 23.2894 35.7878C23.2894 35.3982 23.155 35.1928 22.8239 35.0148C22.0945 34.6227 21.3899 34.187 20.6704 33.775C19.8725 33.3182 19.0697 32.8676 18.2108 32.3808V56.8307ZM34.4538 53.6802C41.5739 49.5674 48.5558 45.5344 55.5975 41.4664C55.4021 41.3333 55.2901 41.2474 55.1681 41.1752C53.81 40.381 52.442 39.6018 51.0952 38.7864C50.7081 38.5524 50.4218 38.5636 50.0297 38.7952C47.2974 40.4009 44.5489 41.9768 41.8054 43.5626C39.5113 44.8896 37.2135 46.2103 34.9281 47.5521C34.7277 47.6692 34.4787 47.9243 34.475 48.1185C34.4401 49.9197 34.4551 51.7209 34.4551 53.6789L34.4538 53.6802ZM23.6056 4.05729C23.6056 6.02403 23.5932 7.84513 23.6255 9.66624C23.628 9.8405 23.8732 10.0671 24.0612 10.1753C29.1461 13.1279 34.236 16.0706 39.3371 18.9946C39.5312 19.1053 39.8997 19.0904 40.1013 18.9784C41.5142 18.1967 42.9046 17.3751 44.2987 16.5623C44.4282 16.4876 44.5402 16.3843 44.7157 16.2523C37.679 12.1881 30.712 8.16255 23.6056 4.05853V4.05729ZM33.9459 22.5496C26.8545 18.4543 19.8588 14.415 12.7661 10.3197C12.7661 12.2778 12.7562 14.0989 12.7836 15.9212C12.786 16.0868 13.0039 16.3009 13.1757 16.4042C14.169 17.0017 15.1797 17.5743 16.1843 18.1543C20.2559 20.5045 24.3263 22.8571 28.4042 25.1973C28.5959 25.3068 28.9121 25.4313 29.0602 25.3491C30.6672 24.4591 32.2506 23.5293 33.9459 22.5509V22.5496Z" fill="#121F24"/>
<path d="M55.4511 40.7419C55.4511 42.6986 55.4374 44.6679 55.4623 46.6371C55.4673 47.0504 55.3254 47.2657 54.9831 47.4636C46.4738 52.3618 37.9583 57.2525 29.4777 62.2005C28.5217 62.7582 27.8196 62.8104 26.9022 62.1905C25.6873 61.369 24.3841 60.6719 23.0957 59.9636C22.7061 59.7495 22.5978 59.5006 22.6016 59.0823C22.6215 57.3036 22.6103 55.5235 22.6103 53.6228C20.7892 54.6709 19.0577 55.6679 17.3474 56.6525C15.6532 55.6692 13.9815 54.6796 12.2886 53.7286C11.9052 53.5132 11.7832 53.2668 11.7895 52.846C11.8106 51.2901 11.7982 49.7341 11.7994 48.1781C11.7994 47.9553 11.7994 47.7337 11.7994 47.3479C9.94844 48.4146 8.21696 49.4117 6.51909 50.3888C4.88346 49.4453 3.26525 48.4843 1.61717 47.5794C1.09686 47.2943 0.92259 46.9769 0.923835 46.3769C0.946241 36.1088 0.940017 25.8419 0.940017 15.5875C2.63166 14.6066 4.31833 13.6456 5.98508 12.6498C6.3747 12.4171 6.66971 12.4133 7.05559 12.6461C8.4211 13.4701 9.80529 14.2618 11.1845 15.0634C11.3413 15.1543 11.5081 15.229 11.7422 15.346V9.34247C13.6379 8.24956 15.4827 7.18652 17.3586 6.10606C19.0378 7.07325 20.758 8.06409 22.5567 9.09849V3.09122C24.2646 2.1091 25.9214 1.18672 27.5446 0.207083C28.0462 -0.0966411 28.4084 -0.048095 28.8926 0.234468C35.5733 4.11567 42.2665 7.97571 48.9571 11.8407C50.8579 12.9386 52.7587 14.0365 54.6619 15.1307C54.9121 15.2751 55.171 15.402 55.4499 15.5489C55.4499 17.5791 55.4623 19.6305 55.43 21.6819C55.4275 21.8798 55.1922 22.1425 54.9968 22.2595C53.5379 23.1283 52.0604 23.9673 50.5903 24.8175C50.487 24.8772 50.3899 24.9494 50.2056 25.0714C51.9757 26.0909 53.6848 27.0743 55.4486 28.09C55.4486 30.1339 55.4586 32.2488 55.43 34.3624C55.4275 34.5416 55.1984 34.7782 55.0154 34.8864C53.4495 35.815 51.8699 36.7212 50.187 37.6971C51.9819 38.7365 53.6898 39.7249 55.4499 40.7431L55.4511 40.7419ZM33.5493 41.0941C33.4771 40.8489 33.4348 40.7742 33.4348 40.6995C33.4311 38.7291 33.4211 36.7586 33.446 34.7881C33.4485 34.6151 33.6302 34.3836 33.7933 34.284C35.6592 33.1425 37.5239 31.9973 39.4159 30.9007C44.5046 27.9518 49.6044 25.0229 54.7067 22.0989C55.0354 21.9109 55.1798 21.713 55.1748 21.3259C55.1549 19.7089 55.1686 18.0907 55.1636 16.4725C55.1636 16.3232 55.1237 16.1738 55.0964 15.9808C54.8673 16.1103 54.7055 16.2012 54.5449 16.2933C51.3347 18.148 48.1256 20.0027 44.9154 21.8562C39.696 24.8698 34.4767 27.8834 29.2561 30.8932C28.6474 31.2442 28.3512 31.6724 28.3537 32.4529C28.386 42.1597 28.3748 51.8664 28.3736 61.5719C28.3736 61.832 28.3736 62.0922 28.3736 62.4183C28.5727 62.33 28.6686 62.2963 28.7557 62.2466C37.3994 57.255 46.0419 52.2585 54.6918 47.2757C55.0453 47.0728 55.181 46.8562 55.1748 46.4491C55.1524 44.8521 55.1686 43.2551 55.1661 41.658C55.1661 41.5062 55.1275 41.353 55.0976 41.1365C47.863 45.3139 40.6981 49.4503 33.4672 53.6253C33.4473 53.441 33.4311 53.3663 33.4311 53.2904C33.4298 51.3199 33.4174 49.3495 33.446 47.3802C33.4485 47.1748 33.6439 46.8923 33.8307 46.7803C35.536 45.7583 37.2538 44.76 38.9765 43.7679C44.2158 40.7506 49.4563 37.7357 54.7055 34.7371C55.069 34.5292 55.1798 34.2977 55.1735 33.8993C55.1524 32.4479 55.1648 30.9953 55.1648 29.5439C55.1648 29.2227 55.1648 28.9016 55.1648 28.5008C47.914 32.7255 40.7728 36.8856 33.5481 41.0954L33.5493 41.0941ZM6.3747 24.8573C6.50166 24.8922 6.5639 24.8959 6.61245 24.9233C8.3377 25.9104 10.0679 26.8913 11.7795 27.9033C11.9451 28.0016 12.0782 28.2867 12.0894 28.4933C12.1268 29.2178 12.1056 29.9447 12.1056 30.6704C12.1019 37.9922 12.1019 45.3127 12.0832 52.6344C12.0832 53.0825 12.204 53.3427 12.6048 53.5655C13.9616 54.3198 15.2947 55.1177 16.6403 55.8932C16.7872 55.9779 16.954 56.0302 17.2042 56.1385V31.1521C18.9594 32.1654 20.6087 33.1525 22.2941 34.0711C22.8281 34.3624 22.9837 34.6898 22.9812 35.281C22.9501 43.1418 22.9488 51.0013 22.9302 58.862C22.9302 59.2865 22.9924 59.5815 23.4194 59.8155C24.8347 60.5923 26.2201 61.4238 27.6205 62.2291C27.7338 62.2939 27.8669 62.325 28.0524 62.3947C28.0524 62.0984 28.0524 61.8731 28.0524 61.6478C28.0524 51.9411 28.04 42.2343 28.0748 32.5288C28.0773 31.6998 27.7562 31.2505 27.1114 30.8783C18.6457 25.9913 10.1825 21.1006 1.718 16.2124C1.59975 16.1439 1.46531 16.1016 1.26366 16.0145C1.26366 16.3057 1.26366 16.5298 1.26366 16.7551C1.26366 26.6274 1.26739 36.4997 1.25245 46.372C1.25245 46.8487 1.38813 47.1114 1.81385 47.3429C3.17812 48.086 4.51376 48.8814 5.86185 49.6532C5.99628 49.7304 6.14566 49.7802 6.37594 49.8822V24.8586L6.3747 24.8573ZM1.45909 15.6423C1.70555 15.7966 1.84123 15.8875 1.98314 15.9696C10.465 20.8716 18.9519 25.766 27.4226 30.6878C28.0026 31.0252 28.4146 31.0165 28.9897 30.6829C37.194 25.9228 45.4133 21.189 53.6275 16.4451C54.0445 16.2037 54.4491 15.9385 54.9196 15.6472C54.713 15.5165 54.5947 15.4369 54.4727 15.3659C52.3566 14.1436 50.2393 12.9237 48.1231 11.7001C41.6316 7.94708 35.1402 4.19533 28.6536 0.433632C28.3238 0.243182 28.0674 0.244427 27.7412 0.439856C26.4243 1.22531 25.0923 1.98462 23.7654 2.75389C23.5775 2.86218 23.3932 2.9767 23.1219 3.14101C30.3777 7.33341 37.5326 11.4685 44.7896 15.6609C42.9897 16.7041 41.3005 17.6663 39.6313 18.6633C39.1969 18.9235 38.857 18.9023 38.4313 18.6521C36.253 17.3713 34.0584 16.1165 31.8714 14.8518C27.1923 12.1469 22.5157 9.43707 17.8279 6.74587C17.6175 6.62513 17.2465 6.55542 17.0573 6.65874C15.5138 7.50394 13.9952 8.39644 12.4716 9.27899C12.4305 9.30264 12.4181 9.37857 12.3782 9.45948C19.5307 13.5909 26.6707 17.7173 33.9253 21.9084C33.5966 22.1163 33.4137 22.2396 33.2232 22.3503C31.7544 23.203 30.2718 24.0333 28.8204 24.9133C28.3736 25.1847 28.0499 25.1847 27.5919 24.9183C20.702 20.9052 13.7998 16.9132 6.89501 12.9249C6.73817 12.8341 6.46805 12.7581 6.3386 12.8303C4.73657 13.7315 3.14949 14.6614 1.46158 15.641L1.45909 15.6423ZM6.76058 25.3876V49.9009C8.40741 48.9549 9.97084 48.0661 11.5181 47.15C11.6513 47.0715 11.7509 46.8188 11.7509 46.6471C11.7621 40.6585 11.7621 34.6686 11.7509 28.68C11.7509 28.5033 11.6662 28.2406 11.5355 28.1622C9.97582 27.2348 8.39994 26.3336 6.76058 25.3876ZM55.0117 28.1896C53.3761 27.246 51.8998 26.4108 50.4421 25.5432C50.0588 25.3141 49.7637 25.3042 49.3716 25.5382C46.0518 27.5124 42.7221 29.468 39.3898 31.4222C37.6944 32.4168 35.9966 33.4089 34.2813 34.3699C33.8991 34.584 33.7697 34.8242 33.7759 35.2487C33.7983 36.8022 33.7834 38.3569 33.7871 39.9116C33.7871 40.0846 33.8132 40.2576 33.8369 40.5415C40.9109 36.415 47.8991 32.3384 55.0117 28.1908V28.1896ZM17.5428 56.2057C19.2282 55.226 20.8066 54.3223 22.3638 53.3813C22.5169 53.2892 22.6016 52.9718 22.6028 52.7589C22.6152 46.8935 22.609 41.0282 22.6215 35.1628C22.6215 34.7732 22.487 34.5678 22.1559 34.3898C21.4265 33.9977 20.7219 33.562 20.0025 33.15C19.2046 32.6932 18.4017 32.2426 17.5428 31.7558V56.2057ZM33.7858 53.0552C40.9059 48.9424 47.8879 44.9094 54.9296 40.8414C54.7341 40.7082 54.6221 40.6224 54.5001 40.5502C53.1421 39.756 51.7741 38.9768 50.4272 38.1614C50.0401 37.9274 49.7538 37.9386 49.3617 38.1702C46.6294 39.7759 43.881 41.3518 41.1375 42.9376C38.8434 44.2646 36.5455 45.5853 34.2601 46.9271C34.0597 47.0441 33.8107 47.2993 33.807 47.4935C33.7721 49.2947 33.7871 51.0959 33.7871 53.0539L33.7858 53.0552ZM22.9376 3.43229C22.9376 5.39903 22.9252 7.22013 22.9576 9.04123C22.9601 9.2155 23.2053 9.44205 23.3932 9.55035C28.4781 12.5029 33.568 15.4456 38.6691 18.3696C38.8633 18.4803 39.2317 18.4654 39.4334 18.3534C40.8462 17.5717 42.2366 16.7501 43.6308 15.9373C43.7602 15.8626 43.8722 15.7593 44.0478 15.6273C37.011 11.5631 30.0441 7.53755 22.9376 3.43353V3.43229ZM33.278 21.9246C26.1865 17.8293 19.1909 13.79 12.0982 9.69474C12.0982 11.6528 12.0882 13.4739 12.1156 15.2962C12.1181 15.4618 12.3359 15.6759 12.5077 15.7792C13.501 16.3767 14.5118 16.9493 15.5163 17.5293C19.588 19.8795 23.6584 22.2321 27.7362 24.5723C27.9279 24.6818 28.2441 24.8063 28.3922 24.7241C29.9992 23.8341 31.5826 22.9043 33.278 21.9259V21.9246Z" fill="#121F24"/>
<path d="M28.4196 64.0015V63.8522C28.0263 63.7824 27.6342 63.6082 27.2221 63.3294C26.1504 62.6036 24.9778 61.9626 23.8451 61.3414L23.4654 61.1336C22.8928 60.8199 22.6414 60.3768 22.6489 59.7008C22.6638 58.4075 22.6613 57.1266 22.6588 55.7711C22.6588 55.623 22.6588 55.4736 22.6588 55.3242L18.0158 57.9967L17.7283 57.8299L17.5876 57.9121V57.749C17.1756 57.5088 16.7636 57.2698 16.354 57.0296C15.1429 56.3225 13.8919 55.5918 12.6533 54.8973C12.087 54.5786 11.8268 54.123 11.8355 53.4633C11.8517 52.338 11.8492 51.1916 11.8467 50.0837C11.8467 49.7402 11.8455 49.3954 11.8455 49.0518L7.66552 51.4629H7.66303L7.18877 51.7355L6.8838 51.56L6.80662 51.6048V51.5165C6.37344 51.2663 5.94151 51.0161 5.51082 50.7646C4.3594 50.0949 3.1694 49.4028 1.98811 48.7543C1.27361 48.3622 0.969885 47.8394 0.972374 47.0054C0.991046 38.5907 0.989801 30.0379 0.988556 21.7664V16.2894L0.923828 16.2496L0.987312 16.2122V15.8587L1.29726 15.6782C1.75036 15.4156 2.20221 15.1554 2.65282 14.894C3.86398 14.1944 5.11747 13.4712 6.33486 12.7443C6.92363 12.3932 7.4676 12.392 8.04642 12.7418C9.09825 13.3766 10.1812 14.0027 11.2281 14.6102C11.4148 14.7185 11.6015 14.8268 11.7882 14.9351V9.61118L12.143 9.40704V9.24397L12.2836 9.32488L18.027 6.01503L22.6028 8.65022V3.80183L22.563 3.77818L22.6028 3.75453V3.35495L22.9152 3.17571C22.9376 3.16326 22.96 3.14957 22.9824 3.13712V2.97779L23.1206 3.05745C23.5301 2.82219 23.9372 2.59066 24.3417 2.36038C25.5703 1.66082 26.7305 0.998598 27.8918 0.297791C28.7321 -0.210076 29.3656 0.0239412 29.8735 0.318952C35.3655 3.5093 40.9582 6.73949 46.3668 9.86263L49.9368 11.9252C51.8375 13.0231 53.7383 14.1197 55.6403 15.2151C55.7972 15.306 55.9627 15.3919 56.1395 15.4828C56.2279 15.5288 56.3175 15.5749 56.4096 15.6234L56.7407 15.7989V16.2657L56.7606 16.2782L56.7407 16.2906C56.7407 16.6927 56.7407 17.0948 56.7407 17.4968C56.7432 19.0739 56.7444 20.7046 56.7195 22.3153C56.7121 22.8444 56.2341 23.2676 55.9826 23.4182C54.9071 24.058 53.8068 24.6916 52.7425 25.3053C52.5259 25.4298 52.3093 25.5542 52.0927 25.68L56.3274 28.1172L56.7395 28.355V28.9151C56.7395 29.2724 56.7395 29.6321 56.7395 29.9931C56.7407 31.6262 56.7432 33.3154 56.7195 34.9958C56.7133 35.4925 56.264 35.8908 56.0001 36.0477C54.7926 36.7634 53.5902 37.4592 52.3168 38.1961C52.2433 38.2385 52.1711 38.2808 52.0977 38.3231L56.7407 41.0093V41.4935L56.7643 41.5097L56.7407 41.5234C56.7407 41.9865 56.7407 42.4495 56.7382 42.9138C56.7357 44.3366 56.7332 45.8079 56.7519 47.2556C56.7594 47.878 56.5079 48.3137 55.9602 48.6298L52.6641 50.5269C45.3772 54.7205 37.8425 59.056 30.4586 63.3642C30.0615 63.5957 29.693 63.7513 29.3408 63.8298V63.9219L29.1789 63.8609C29.0121 63.887 28.8491 63.8945 28.686 63.8858L28.4196 64.004V64.0015ZM17.2478 30.6976L18.1814 31.2366C18.6768 31.5229 19.1647 31.8067 19.6465 32.088C20.885 32.81 22.0563 33.4921 23.2588 34.1481C23.9708 34.5365 24.2733 35.0618 24.2695 35.907C24.2496 40.8463 24.2422 45.8702 24.2347 50.7273C24.2297 53.6475 24.226 56.5665 24.2185 59.4867C24.2185 59.8017 24.2434 59.8154 24.3841 59.8938C25.355 60.4265 26.3247 60.9929 27.2632 61.5394C27.5408 61.7012 27.8184 61.863 28.096 62.0236C28.096 60.083 28.096 58.1424 28.0947 56.2005C28.0922 48.6448 28.0898 40.8326 28.1184 33.1486C28.1209 32.5947 27.9615 32.3258 27.4661 32.0395C22.4559 29.1479 17.4469 26.2538 12.438 23.3609C9.14306 21.4577 5.84815 19.5544 2.55324 17.6512V22.3004C2.55324 30.3939 2.55324 38.7638 2.54203 46.9967C2.54203 47.2718 2.5744 47.3091 2.77854 47.4199C3.71959 47.9328 4.65939 48.4767 5.56683 49.0033C5.85064 49.1676 6.13569 49.3331 6.4195 49.4962V24.6667L7.20495 24.8796C7.24105 24.8895 7.27093 24.8957 7.29582 24.902C7.37673 24.9206 7.47631 24.943 7.58834 25.0065L8.48831 25.5206C9.89242 26.3223 11.3451 27.1525 12.7616 27.9903C13.1388 28.2131 13.3566 28.7085 13.3753 29.0832C13.4039 29.6371 13.4002 30.1923 13.3952 30.73C13.394 30.918 13.3927 31.1047 13.3927 31.2926V35.0543C13.3877 41.0205 13.3853 47.1896 13.3703 53.2579C13.3703 53.5218 13.4052 53.5504 13.572 53.6425C14.4831 54.1492 15.3956 54.6819 16.2781 55.1973C16.6005 55.3852 16.9241 55.5744 17.2478 55.7624V30.6951V30.6976ZM55.2109 17.6387L51.8276 19.5943C49.8509 20.737 47.8729 21.8797 45.895 23.0211L44.822 23.641C39.9599 26.448 35.0991 29.2549 30.2345 32.0582C29.7802 32.3208 29.642 32.5586 29.6432 33.0764C29.6694 40.8039 29.6669 48.661 29.6644 56.259C29.6644 58.1772 29.6644 60.0967 29.6644 62.0149L34.6124 59.1569C41.3092 55.2881 48.2339 51.2887 55.0503 47.3626C55.2246 47.2631 55.2246 47.2456 55.2221 47.0838C55.2071 46.0245 55.2096 44.9503 55.2121 43.9109C55.2121 43.5412 55.2134 43.1715 55.2134 42.8006L33.6215 55.267L33.517 54.3197C33.5095 54.2562 33.5033 54.2064 33.4983 54.1653C33.4871 54.0794 33.4771 54.0048 33.4771 53.9164V52.7525C33.4722 51.1941 33.4697 49.5833 33.4921 47.9962C33.4983 47.5282 33.8506 47.0676 34.1792 46.871C36.0588 45.7444 37.921 44.6665 39.335 43.8524C44.339 40.972 49.6741 37.9011 55.0665 34.8203C55.2134 34.7369 55.2246 34.7257 55.2208 34.5315C55.2046 33.4685 55.2071 32.3905 55.2096 31.3486C55.2096 30.9677 55.2109 30.5881 55.2109 30.2072L33.8443 42.6549L33.619 41.8956C33.5941 41.8097 33.573 41.7475 33.5568 41.6989C33.5195 41.5869 33.4796 41.4724 33.4796 41.3243V40.5911C33.4734 38.892 33.4697 37.1356 33.4896 35.4054C33.4946 34.9871 33.8182 34.5714 34.1356 34.3772L34.5663 34.1133C36.2629 33.0751 38.0181 32.0022 39.7719 30.9864C45.2016 27.8396 50.5492 24.7713 55.0652 22.1834C55.2221 22.0938 55.2221 22.0913 55.2208 21.9581C55.2071 20.8975 55.2084 19.8208 55.2096 18.7802C55.2096 18.3993 55.2109 18.0196 55.2109 17.6387ZM18.8311 33.4461V55.7487C18.8871 55.7163 18.9419 55.684 18.9979 55.6516C20.2539 54.9234 21.4427 54.235 22.6227 53.523C22.6352 53.482 22.6464 53.4259 22.6464 53.3799C22.6526 50.4472 22.6538 47.5158 22.6563 44.5831C22.6576 41.6504 22.6588 38.7177 22.6663 35.7838C22.6663 35.6842 22.6202 35.6095 22.5281 35.5597C22.0476 35.302 21.5746 35.0232 21.1178 34.7543C20.8663 34.6062 20.6136 34.4581 20.3597 34.3125C19.8568 34.0237 19.3502 33.7399 18.8311 33.4461ZM35.0928 48.2166C35.068 49.5696 35.0704 50.9227 35.0729 52.3529C35.0729 52.4351 35.0729 52.5185 35.0729 52.6007L54.3906 41.4425C54.1292 41.2906 53.8678 41.1388 53.6064 40.9869C52.674 40.4467 51.7106 39.8878 50.7708 39.3189C50.6015 39.2169 50.5629 39.2019 50.3426 39.3314C48.2912 40.5363 46.1975 41.745 44.1722 42.9138C43.4863 43.3097 42.8005 43.7055 42.1159 44.1013L40.7379 44.8968C38.933 45.9386 37.0683 47.0166 35.2422 48.0884C35.1875 48.1207 35.1265 48.1767 35.0928 48.2166ZM8.04891 27.089V49.4501L8.1572 49.3879C9.41318 48.6684 10.6007 47.9875 11.7882 47.2855C11.7907 47.2755 11.7932 47.2668 11.7944 47.2606C11.8056 41.4064 11.8056 35.3618 11.7944 29.306C11.7944 29.296 11.7919 29.2811 11.787 29.2649C10.587 28.5529 9.39326 27.8645 8.12982 27.1363L8.04891 27.089ZM50.5679 26.6123C50.5081 26.6123 50.4496 26.6409 50.3563 26.6957C46.9319 28.7321 43.5461 30.72 40.3707 32.581C38.6442 33.593 36.9538 34.5813 35.2522 35.5348C35.0754 35.6332 35.0617 35.6581 35.0642 35.8609C35.0792 36.9115 35.0779 37.9771 35.0767 39.0065C35.0767 39.3737 35.0767 39.7409 35.0767 40.1081L54.4379 28.8155C54.3059 28.7396 54.174 28.6637 54.0445 28.589C52.9155 27.9405 51.85 27.3293 50.7919 26.6994C50.6923 26.6409 50.6313 26.611 50.5704 26.611L50.5679 26.6123ZM3.34616 16.2782L8.34392 19.1661C14.9213 22.9651 21.7215 26.8936 28.4009 30.7748C28.7806 30.9951 28.9574 30.9951 29.3432 30.7698C35.4588 27.221 41.6852 23.6286 47.7061 20.1544C49.7986 18.947 51.8898 17.7395 53.9823 16.5321C54.1192 16.4525 54.2574 16.3691 54.3968 16.2832C53.6387 15.845 52.8794 15.4081 52.1213 14.9699C50.9064 14.2691 49.6915 13.5683 48.4766 12.8663L47.0701 12.0534C41.1487 8.6303 35.0244 5.09017 29.0059 1.59982C28.8727 1.52265 28.8565 1.52265 28.7233 1.60231C27.7835 2.16246 26.8213 2.71763 25.8915 3.25537C25.599 3.42342 25.3077 3.5927 25.0164 3.76199L46.6954 16.2881L45.7655 16.8271C45.2701 17.1147 44.7822 17.396 44.3017 17.6736C43.0258 18.4092 41.8208 19.1051 40.6147 19.8245C39.9985 20.193 39.4159 20.1905 38.7799 19.8158C37.2314 18.9059 35.6493 17.9935 34.1182 17.1109C33.4871 16.7475 32.8547 16.3827 32.2236 16.018L29.5474 14.4695C25.8243 12.3161 21.9754 10.0892 18.1826 7.91207C18.1303 7.88219 18.0307 7.85854 17.9735 7.8573C16.7125 8.54939 15.4454 9.28505 14.2192 9.99582L14.1769 10.0207L35.7937 22.5095L34.9223 23.0597C34.8078 23.1319 34.7119 23.1941 34.6261 23.2489C34.463 23.3535 34.3348 23.4356 34.1991 23.514C33.7547 23.7717 33.3103 24.0269 32.8647 24.2833C31.8564 24.8621 30.8146 25.4609 29.8063 26.0721C29.169 26.4592 28.5926 26.4617 27.9416 26.082C20.88 21.9693 13.8222 17.8877 7.24603 14.0899C7.23109 14.0812 7.20993 14.0724 7.18877 14.065C5.96267 14.7558 4.75275 15.4591 3.47437 16.2023L3.34242 16.2782H3.34616ZM13.4039 15.7965C13.4288 15.8214 13.4637 15.8512 13.496 15.8699C14.2479 16.3218 15.0246 16.7686 15.7765 17.2006C16.0155 17.3387 16.2557 17.4757 16.4947 17.6138L18.3295 18.6731C21.7315 20.6374 25.2492 22.6676 28.7134 24.6568C28.7731 24.6904 28.8354 24.7177 28.8827 24.7339C30.0926 24.0617 31.2838 23.3709 32.5435 22.6415C32.5958 22.6103 32.6494 22.5805 32.7016 22.5493L13.3865 11.3962C13.3865 11.4547 13.3865 11.5119 13.3865 11.5705C13.3853 13.0306 13.384 14.411 13.4039 15.7965ZM39.6263 18.4428C39.6724 18.4528 39.7682 18.4466 39.8056 18.4304C40.952 17.7956 42.1134 17.1172 43.2374 16.4612L43.5337 16.2881L24.226 5.13498C24.226 5.2022 24.226 5.26941 24.226 5.33539C24.2235 6.78804 24.2222 8.16227 24.2446 9.53774C24.277 9.5701 24.3256 9.60994 24.3716 9.63608C30.2942 13.0741 35.1426 15.8736 39.6263 18.4428Z" fill="#121F24"/>
</svg>
