<svg width="24" height="28" viewBox="0 0 24 28" xmlns="http://www.w3.org/2000/svg">
<path d="M12 16.25C11.1337 16.2507 10.2807 16.0368 9.51731 15.6273C8.7539 15.2178 8.10384 14.6256 7.62525 13.9035L8.87475 13.0729C9.21688 13.5886 9.6813 14.0116 10.2266 14.3042C10.7719 14.5969 11.3811 14.75 12 14.75C12.6189 14.75 13.2281 14.5969 13.7734 14.3042C14.3187 14.0116 14.7831 13.5886 15.1252 13.0729L16.3748 13.9035C15.8962 14.6256 15.2461 15.2178 14.4827 15.6273C13.7193 16.0368 12.8663 16.2507 12 16.25Z"/>
<path d="M15 8C14.7033 8 14.4133 8.08797 14.1666 8.2528C13.92 8.41762 13.7277 8.65189 13.6142 8.92598C13.5006 9.20006 13.4709 9.50166 13.5288 9.79264C13.5867 10.0836 13.7296 10.3509 13.9393 10.5607C14.1491 10.7704 14.4164 10.9133 14.7074 10.9712C14.9983 11.0291 15.2999 10.9994 15.574 10.8858C15.8481 10.7723 16.0824 10.58 16.2472 10.3334C16.412 10.0867 16.5 9.79667 16.5 9.5C16.5019 9.30248 16.4645 9.10655 16.3898 8.92368C16.3151 8.74082 16.2047 8.57468 16.065 8.43501C15.9253 8.29533 15.7592 8.18491 15.5763 8.11022C15.3935 8.03553 15.1975 7.99806 15 8Z"/>
<path d="M9 8C8.70333 8 8.41332 8.08797 8.16664 8.2528C7.91997 8.41762 7.72771 8.65189 7.61418 8.92598C7.50065 9.20006 7.47094 9.50166 7.52882 9.79264C7.5867 10.0836 7.72956 10.3509 7.93934 10.5607C8.14912 10.7704 8.41639 10.9133 8.70736 10.9712C8.99834 11.0291 9.29994 10.9994 9.57403 10.8858C9.84811 10.7723 10.0824 10.58 10.2472 10.3334C10.412 10.0867 10.5 9.79667 10.5 9.5C10.5019 9.30248 10.4645 9.10655 10.3898 8.92368C10.3151 8.74082 10.2047 8.57468 10.065 8.43501C9.92532 8.29533 9.75918 8.18491 9.57632 8.11022C9.39345 8.03553 9.19752 7.99806 9 8Z"/>
<path d="M13.3018 24.5L12 23.75L15 18.5H19.5C19.6971 18.5003 19.8923 18.4618 20.0744 18.3865C20.2566 18.3112 20.4221 18.2008 20.5614 18.0614C20.7008 17.9221 20.8112 17.7566 20.8865 17.5744C20.9618 17.3923 21.0003 17.1971 21 17V6.5C21.0003 6.30292 20.9618 6.10772 20.8865 5.92558C20.8112 5.74344 20.7008 5.57795 20.5614 5.43859C20.4221 5.29924 20.2566 5.18876 20.0744 5.1135C19.8923 5.03823 19.6971 4.99966 19.5 5H4.5C4.30292 4.99966 4.10772 5.03823 3.92558 5.1135C3.74344 5.18876 3.57795 5.29924 3.43859 5.43859C3.29924 5.57795 3.18876 5.74344 3.1135 5.92558C3.03823 6.10772 2.99966 6.30292 3 6.5V17C2.99966 17.1971 3.03823 17.3923 3.1135 17.5744C3.18876 17.7566 3.29924 17.9221 3.43859 18.0614C3.57795 18.2008 3.74344 18.3112 3.92558 18.3865C4.10772 18.4618 4.30292 18.5003 4.5 18.5H11.25V20H4.5C4.10601 20.0001 3.71588 19.9225 3.35187 19.7718C2.98786 19.621 2.65712 19.4001 2.37853 19.1215C2.09994 18.8429 1.87896 18.5121 1.72822 18.1481C1.57748 17.7841 1.49993 17.394 1.5 17V6.5C1.49988 6.106 1.5774 5.71584 1.72812 5.35181C1.87884 4.98778 2.09982 4.65702 2.37842 4.37842C2.65702 4.09982 2.98778 3.87884 3.35181 3.72812C3.71584 3.5774 4.106 3.49988 4.5 3.5H19.5C19.894 3.49988 20.2842 3.5774 20.6482 3.72812C21.0122 3.87884 21.343 4.09982 21.6216 4.37842C21.9002 4.65702 22.1212 4.98778 22.2719 5.35181C22.4226 5.71584 22.5001 6.106 22.5 6.5V17C22.5001 17.394 22.4225 17.7841 22.2718 18.1481C22.121 18.5121 21.9001 18.8429 21.6215 19.1215C21.3429 19.4001 21.0121 19.621 20.6481 19.7718C20.2841 19.9225 19.894 20.0001 19.5 20H15.8735L13.3018 24.5Z"/>
</svg>
