<svg width="24" height="28" viewBox="0 0 24 28" fill="none" xmlns="http://www.w3.org/2000/svg">
<path d="M20.2509 14.5715C20.2509 14.384 20.2509 14.1965 20.2509 14.0015C20.2509 13.8065 20.2509 13.619 20.2509 13.424L21.6909 12.164C21.9564 11.9301 22.1306 11.6098 22.1827 11.2598C22.2349 10.9099 22.1616 10.5527 21.9759 10.2515L20.2059 7.25153C20.0744 7.02372 19.8853 6.83451 19.6576 6.70287C19.4298 6.57123 19.1715 6.5018 18.9084 6.50153C18.7454 6.50028 18.5833 6.52561 18.4284 6.57653L16.6059 7.19153C16.2913 6.98243 15.963 6.79452 15.6234 6.62903L15.2409 4.73903C15.1723 4.39373 14.9845 4.08356 14.7103 3.8628C14.436 3.64205 14.0929 3.52478 13.7409 3.53153H10.2309C9.87895 3.52478 9.53581 3.64205 9.26158 3.8628C8.98735 4.08356 8.79951 4.39373 8.73092 4.73903L8.34842 6.62903C8.00637 6.79448 7.67565 6.98239 7.35842 7.19153L5.57342 6.54653C5.41689 6.50574 5.2548 6.49055 5.09342 6.50153C4.83038 6.5018 4.57203 6.57123 4.34429 6.70287C4.11656 6.83451 3.92744 7.02372 3.79592 7.25153L2.02592 10.2515C1.85086 10.5523 1.78581 10.9045 1.84191 11.2479C1.89801 11.5914 2.07176 11.9046 2.33342 12.134L3.75092 13.4315C3.75092 13.619 3.75092 13.8065 3.75092 14.0015C3.75092 14.1965 3.75092 14.384 3.75092 14.579L2.33342 15.839C2.06437 16.07 1.88586 16.3889 1.82957 16.739C1.77328 17.0891 1.84284 17.4478 2.02592 17.7515L3.79592 20.7515C3.92744 20.9793 4.11656 21.1685 4.34429 21.3002C4.57203 21.4318 4.83038 21.5013 5.09342 21.5015C5.25643 21.5028 5.41856 21.4774 5.57342 21.4265L7.39592 20.8115C7.71058 21.0206 8.0388 21.2085 8.37842 21.374L8.76092 23.264C8.82951 23.6093 9.01735 23.9195 9.29158 24.1402C9.56581 24.361 9.90895 24.4783 10.2609 24.4715H13.8009C14.1529 24.4783 14.496 24.361 14.7703 24.1402C15.0445 23.9195 15.2323 23.6093 15.3009 23.264L15.6834 21.374C16.0255 21.2086 16.3562 21.0207 16.6734 20.8115L18.4884 21.4265C18.6433 21.4774 18.8054 21.5028 18.9684 21.5015C19.2315 21.5013 19.4898 21.4318 19.7176 21.3002C19.9453 21.1685 20.1344 20.9793 20.2659 20.7515L21.9759 17.7515C22.151 17.4508 22.216 17.0985 22.1599 16.7551C22.1038 16.4117 21.9301 16.0984 21.6684 15.869L20.2509 14.5715ZM18.9084 20.0015L16.3359 19.1315C15.7337 19.6416 15.0455 20.0403 14.3034 20.309L13.7709 23.0015H10.2309L9.69842 20.339C8.96224 20.0627 8.27771 19.6647 7.67342 19.1615L5.09342 20.0015L3.32342 17.0015L5.36342 15.2015C5.22475 14.4252 5.22475 13.6304 5.36342 12.854L3.32342 11.0015L5.09342 8.00153L7.66592 8.87153C8.26812 8.36144 8.95638 7.96272 9.69842 7.69403L10.2309 5.00153H13.7709L14.3034 7.66403C15.0396 7.94034 15.7241 8.33838 16.3284 8.84153L18.9084 8.00153L20.6784 11.0015L18.6384 12.8015C18.7771 13.5779 18.7771 14.3727 18.6384 15.149L20.6784 17.0015L18.9084 20.0015Z" fill="#121F24"/>
<path d="M12.0009 18.5015C11.1109 18.5015 10.2409 18.2376 9.50086 17.7431C8.76083 17.2487 8.18406 16.5459 7.84346 15.7236C7.50287 14.9013 7.41376 13.9965 7.58739 13.1236C7.76102 12.2507 8.18961 11.4489 8.81894 10.8195C9.44828 10.1902 10.2501 9.76163 11.123 9.58799C11.9959 9.41436 12.9007 9.50347 13.723 9.84407C14.5453 10.1847 15.2481 10.7614 15.7425 11.5015C16.237 12.2415 16.5009 13.1115 16.5009 14.0015C16.5069 14.5941 16.3947 15.182 16.1706 15.7307C15.9466 16.2794 15.6154 16.7779 15.1963 17.1969C14.7772 17.616 14.2788 17.9472 13.7301 18.1712C13.1814 18.3953 12.5935 18.5075 12.0009 18.5015ZM12.0009 11.0015C11.6044 10.9923 11.2102 11.0636 10.842 11.2111C10.4739 11.3586 10.1395 11.5792 9.85904 11.8596C9.5786 12.1401 9.35796 12.4745 9.21047 12.8426C9.06297 13.2108 8.99169 13.605 9.00092 14.0015C8.99169 14.398 9.06297 14.7923 9.21047 15.1604C9.35796 15.5286 9.5786 15.863 9.85904 16.1434C10.1395 16.4239 10.4739 16.6445 10.842 16.792C11.2102 16.9395 11.6044 17.0108 12.0009 17.0015C12.3974 17.0108 12.7917 16.9395 13.1598 16.792C13.528 16.6445 13.8624 16.4239 14.1428 16.1434C14.4232 15.863 14.6439 15.5286 14.7914 15.1604C14.9389 14.7923 15.0102 14.398 15.0009 14.0015C15.0102 13.605 14.9389 13.2108 14.7914 12.8426C14.6439 12.4745 14.4232 12.1401 14.1428 11.8596C13.8624 11.5792 13.528 11.3586 13.1598 11.2111C12.7917 11.0636 12.3974 10.9923 12.0009 11.0015Z" fill="#121F24"/>
</svg>
